<svg width="16" height="16" viewBox="0 0 16 16" fill="none" xmlns="http://www.w3.org/2000/svg">
<g id="heroicons-outline/star">
<path id="Star 5" d="M7.65386 2.33255C7.78196 2.02457 8.21826 2.02457 8.34635 2.33255L9.76367 5.74019C9.81767 5.87003 9.93978 5.95874 10.0799 5.96998L13.7588 6.26491C14.0913 6.29156 14.2261 6.7065 13.9728 6.92351L11.1699 9.32447C11.0631 9.41595 11.0165 9.5595 11.0491 9.69628L11.9054 13.2862C11.9828 13.6107 11.6298 13.8671 11.3452 13.6932L8.19558 11.7695C8.07557 11.6962 7.92464 11.6962 7.80464 11.7695L4.65505 13.6932C4.37038 13.8671 4.01741 13.6107 4.09481 13.2862L4.95113 9.69628C4.98376 9.5595 4.93712 9.41595 4.83033 9.32447L2.02745 6.92351C1.77412 6.7065 1.90894 6.29156 2.24144 6.26491L5.92027 5.96998C6.06044 5.95874 6.18254 5.87003 6.23655 5.74019L7.65386 2.33255Z" stroke="black" stroke-opacity="0.87" stroke-linecap="round" stroke-linejoin="round"/>
</g>
</svg>
